<svg width="457" height="182" viewBox="0 0 457 182" fill="none" xmlns="http://www.w3.org/2000/svg">
<path d="M94.5859 77.9766L82.9141 106.805C77.1016 121.055 72.6016 130.875 69.4141 136.266C66.2734 141.656 62.2891 146.25 57.4609 150.047C50.4297 155.578 42.2734 158.344 32.9922 158.344C23.1953 158.344 15.25 155.25 9.15625 149.062C3.0625 142.875 0.015625 134.836 0.015625 124.945C0.015625 111.727 4.84375 100.172 14.5 90.2812C19.7031 84.9375 26.2188 80.6484 34.0469 77.4141C41.875 74.1328 49.6328 72.4922 57.3203 72.4922C61.0234 72.4922 64 73.3359 66.25 75.0234C68.5 76.6641 69.625 78.8438 69.625 81.5625C69.625 84.4219 68.4062 86.7188 65.9688 88.4531C64.5625 89.4844 61.8672 90.1875 57.8828 90.5625C48.6016 91.4062 41.0781 93.5391 35.3125 96.9609C30.5312 99.8203 26.7578 103.57 23.9922 108.211C21.2266 112.805 19.8438 117.656 19.8438 122.766C19.8438 127.969 21.1797 132.094 23.8516 135.141C26.5703 138.234 30.2031 139.781 34.75 139.781C40.4688 139.781 45.4141 137.367 49.5859 132.539C53.7578 127.711 58.3516 119.133 63.3672 106.805L87.7656 46.8281H80.1016C73.6328 46.8281 70.3984 44.5781 70.3984 40.0781C70.3984 36.8906 71.5234 34.4297 73.7734 32.6953C76.0703 30.9141 79.2812 30.0234 83.4062 30.0234H110.195C119.195 30.0234 125.828 31.7344 130.094 35.1562C134.406 38.5312 136.562 43.7578 136.562 50.8359C136.562 59.4609 133.234 66.5156 126.578 72C121.75 75.9844 114.297 77.9766 104.219 77.9766H94.5859ZM101.406 61.1719H107.102C114.602 61.1719 118.352 58.125 118.352 52.0312C118.352 48.5625 116.219 46.8281 111.953 46.8281H107.242L101.406 61.1719ZM142.469 87.6094L140.078 93.5156C137.922 98.7656 135.109 101.391 131.641 101.391C129.531 101.391 127.773 100.758 126.367 99.4922C124.961 98.2266 124.258 96.6562 124.258 94.7812C124.258 93.7031 124.773 91.875 125.805 89.2969L133.75 69.6797C135.672 64.9453 138.391 62.5781 141.906 62.5781C145.375 62.5781 147.508 64.2188 148.305 67.5L148.867 69.6797C149.148 70.8047 149.57 71.5078 150.133 71.7891C150.695 72.0703 152.078 72.2109 154.281 72.2109H170.734C176.875 72.2109 179.945 74.3672 179.945 78.6797C179.945 84.6328 176.055 87.6094 168.273 87.6094L167.5 88.3125C160.047 95.4375 156.32 100.945 156.32 104.836C156.32 108.727 158.477 110.672 162.789 110.672H171.648C177.602 110.672 180.578 112.734 180.578 116.859C180.578 119.766 179.523 122.016 177.414 123.609C175.352 125.203 172.445 126 168.695 126H154.914C150.227 126 146.383 124.383 143.383 121.148C140.43 117.914 138.953 113.719 138.953 108.562C138.953 105.281 139.75 102.094 141.344 99C142.938 95.9062 145.75 92.1094 149.781 87.6094H142.469ZM216.227 71.2266C223.023 71.2266 228.602 73.3828 232.961 77.6953C237.367 82.0078 239.57 87.4922 239.57 94.1484C239.57 99.1641 238.422 104.156 236.125 109.125C233.828 114.047 230.852 117.984 227.195 120.938C224.758 122.859 222.227 124.195 219.602 124.945C217.023 125.648 213.391 126 208.703 126C201.062 126 195.906 125.086 193.234 123.258C186.953 118.945 183.812 112.57 183.812 104.133C183.812 95.2266 187.023 87.5156 193.445 81C199.867 74.4844 207.461 71.2266 216.227 71.2266ZM214.539 86.2031C211.07 86.2031 207.906 87.9141 205.047 91.3359C202.188 94.7578 200.758 98.5312 200.758 102.656C200.758 108.094 203.805 110.812 209.898 110.812C213.461 110.812 216.203 109.711 218.125 107.508C221.312 103.898 222.906 99.7734 222.906 95.1328C222.906 92.4609 222.133 90.3047 220.586 88.6641C219.039 87.0234 217.023 86.2031 214.539 86.2031ZM327.883 110.672H336.25C342.156 110.672 345.109 112.758 345.109 116.93C345.109 119.789 344.055 122.016 341.945 123.609C339.883 125.203 337 126 333.297 126H319.023C315.93 126 313.422 125.18 311.5 123.539C309.578 121.898 308.617 119.742 308.617 117.07C308.617 115.242 309.25 112.758 310.516 109.617L317.125 93.5156C317.5 92.5781 317.688 91.7109 317.688 90.9141C317.688 87.8672 316.141 86.3438 313.047 86.3438C310.656 86.3438 308.289 87.4219 305.945 89.5781C303.602 91.7344 301.727 94.5938 300.32 98.1562L292.445 117.562C289.867 123.844 286.117 126.984 281.195 126.984C279.273 126.984 277.633 126.352 276.273 125.086C274.914 123.82 274.234 122.32 274.234 120.586C274.234 119.227 274.586 117.633 275.289 115.805L276.062 113.906L284.008 94.2891C284.711 92.5547 285.062 91.1953 285.062 90.2109C285.062 89.1797 284.594 88.2891 283.656 87.5391C282.719 86.7422 281.617 86.3438 280.352 86.3438C275.289 86.3438 271.281 90 268.328 97.3125L260.102 117.492C257.523 123.82 253.797 126.984 248.922 126.984C247 126.984 245.336 126.375 243.93 125.156C242.57 123.891 241.891 122.367 241.891 120.586C241.891 119.18 242.242 117.586 242.945 115.805L243.719 113.906L257.711 79.4531C259.68 74.625 262.633 72.2109 266.57 72.2109C270.648 72.2109 273.18 74.1328 274.164 77.9766C277.352 75.2578 279.93 73.4531 281.898 72.5625C283.914 71.6719 286.375 71.2266 289.281 71.2266C295.562 71.2266 300.273 73.9688 303.414 79.4531C308.664 73.9688 314.57 71.2266 321.133 71.2266C325.633 71.2266 329.383 72.5391 332.383 75.1641C335.43 77.7422 336.953 80.9297 336.953 84.7266C336.953 87.1172 336.438 89.5781 335.406 92.1094L327.883 110.672ZM363.039 120.516L344.688 165.656C342.156 171.891 338.453 175.008 333.578 175.008C331.703 175.008 330.109 174.375 328.797 173.109C327.438 171.891 326.758 170.414 326.758 168.68C326.758 167.227 327.344 165.023 328.516 162.07L362.406 78.5391C364.141 74.3203 367.141 72.2109 371.406 72.2109C374.359 72.2109 376.703 73.6172 378.438 76.4297C381.719 72.9609 385.727 71.2266 390.461 71.2266C395.383 71.2266 399.344 73.1016 402.344 76.8516C405.391 80.5547 406.914 85.4531 406.914 91.5469C406.914 103.078 403.328 112.477 396.156 119.742C393.812 122.133 391.398 123.773 388.914 124.664C386.43 125.555 382.961 126 378.508 126C373.727 126 370.422 125.672 368.594 125.016C366.812 124.359 364.961 122.859 363.039 120.516ZM368.805 106.172C369.977 108.234 371.078 109.57 372.109 110.18C373.188 110.789 374.875 111.094 377.172 111.094C380.5 111.094 383.102 109.852 384.977 107.367C388.773 102.352 390.672 97.1953 390.672 91.8984C390.672 87.3516 388.516 85.0781 384.203 85.0781C379.469 85.0781 376.07 87.8203 374.008 93.3047C373.773 93.9141 373.586 94.4297 373.445 94.8516L368.805 106.172ZM445.797 72.2109H447.977C453.93 72.2109 456.906 74.2969 456.906 78.4688C456.906 81.3281 455.852 83.5547 453.742 85.1484C451.633 86.7422 448.727 87.5391 445.023 87.5391H439.891L430.469 110.672H438.344C444.297 110.672 447.273 112.758 447.273 116.93C447.273 119.789 446.219 122.016 444.109 123.609C442.047 125.203 439.141 126 435.391 126H422.805C419.242 126 416.406 125.18 414.297 123.539C412.234 121.898 411.203 119.672 411.203 116.859C411.203 115.125 411.625 113.203 412.469 111.094L413.805 108L422.102 87.5391H421.047C415.797 87.5391 413.172 85.5 413.172 81.4219C413.172 78.5156 414.203 76.2656 416.266 74.6719C418.375 73.0312 421.305 72.2109 425.055 72.2109H428.289L432.016 63L432.789 61.1016C434.992 55.8984 438.461 53.2969 443.195 53.2969C445.117 53.2969 446.758 53.9531 448.117 55.2656C449.523 56.5312 450.227 58.0781 450.227 59.9062C450.227 61.6875 449.617 63.9375 448.398 66.6562L445.797 72.2109Z" fill="white"/>
<path d="M187.039 136.805L179.82 149.215C179.281 150.137 178.629 150.598 177.863 150.598C177.277 150.598 176.824 150.414 176.504 150.047C176.184 149.688 176.023 149.172 176.023 148.5L176.328 140.098L172.062 149.215C171.633 150.137 171.012 150.598 170.199 150.598C169.613 150.598 169.152 150.41 168.816 150.035C168.488 149.668 168.324 149.156 168.324 148.5L168.078 140.402C168.078 138.973 167.953 138.012 167.703 137.52C167.461 137.02 166.984 136.77 166.273 136.77C165.641 136.77 165.012 137.105 164.387 137.777C163.762 138.441 163.449 139.113 163.449 139.793C163.449 140.363 163.625 140.824 163.977 141.176C164.328 141.527 164.789 141.703 165.359 141.703C165.523 141.703 165.68 141.699 165.828 141.691C165.977 141.684 166.07 141.68 166.109 141.68C167.062 141.68 167.539 142.074 167.539 142.863C167.539 143.387 167.27 143.824 166.73 144.176C166.191 144.52 165.512 144.691 164.691 144.691C163.426 144.691 162.379 144.258 161.551 143.391C160.723 142.523 160.309 141.426 160.309 140.098C160.309 138.48 160.965 137.035 162.277 135.762C163.598 134.48 165.09 133.84 166.754 133.84C168.277 133.84 169.379 134.289 170.059 135.188C170.746 136.078 171.09 137.508 171.09 139.477L171.102 140.402L171.172 144.48L175.355 135.398C175.824 134.359 176.539 133.84 177.5 133.84C178.047 133.84 178.488 134.004 178.824 134.332C179.16 134.652 179.328 135.082 179.328 135.621L179.316 135.75L179.105 144.668L184.379 135.586L184.625 135.129C185.055 134.379 185.715 134.004 186.605 134.004H188.891C189.977 134.004 190.52 134.387 190.52 135.152C190.52 135.668 190.328 136.074 189.945 136.371C189.562 136.66 189.031 136.805 188.352 136.805H187.039ZM195.277 147.445H196.566C197.551 147.445 198.043 147.789 198.043 148.477C198.043 148.953 197.867 149.328 197.516 149.602C197.164 149.867 196.68 150 196.062 150H194.562C193.891 150 193.434 149.738 193.191 149.215C192.605 149.738 192.039 150 191.492 150H190.156C189.297 150 188.602 149.695 188.07 149.086C187.547 148.469 187.285 147.664 187.285 146.672C187.285 145.172 187.801 143.832 188.832 142.652C189.871 141.465 191.043 140.871 192.348 140.871C193.348 140.871 194.078 141.219 194.539 141.914C194.93 141.328 195.441 141.035 196.074 141.035C196.418 141.035 196.703 141.145 196.93 141.363C197.164 141.582 197.281 141.852 197.281 142.172C197.281 142.391 197.219 142.652 197.094 142.957L196.965 143.273L195.277 147.445ZM191.023 147.504H191.316C191.957 147.504 192.383 147.242 192.594 146.719L193.414 144.691C193.523 144.426 193.578 144.203 193.578 144.023C193.578 143.812 193.473 143.629 193.262 143.473C193.059 143.316 192.812 143.238 192.523 143.238C191.953 143.238 191.398 143.57 190.859 144.234C190.32 144.898 190.051 145.586 190.051 146.297C190.051 147.102 190.375 147.504 191.023 147.504ZM202.402 144.234L202.18 144.773C201.836 145.547 201.348 145.934 200.715 145.934C200.395 145.934 200.105 145.824 199.848 145.605C199.598 145.379 199.473 145.121 199.473 144.832C199.473 144.559 199.586 144.195 199.812 143.742L201.371 140.578C201.754 139.82 202.23 139.441 202.801 139.441C203.105 139.441 203.367 139.543 203.586 139.746C203.805 139.941 203.914 140.176 203.914 140.449C203.914 140.52 203.891 140.672 203.844 140.906C203.812 141.078 203.797 141.23 203.797 141.363C203.797 141.855 203.98 142.359 204.348 142.875L205.016 143.801C205.695 144.746 206.035 145.66 206.035 146.543C206.035 147.527 205.668 148.352 204.934 149.016C204.199 149.672 203.285 150 202.191 150H199.742C198.75 150 198.254 149.656 198.254 148.969C198.254 148.492 198.43 148.121 198.781 147.855C199.133 147.582 199.617 147.445 200.234 147.445H201.594C202.68 147.445 203.223 147.051 203.223 146.262C203.223 145.973 203.121 145.633 202.918 145.242L202.402 144.234ZM212.527 141.539C213.348 141.094 214.023 140.871 214.555 140.871C215.305 140.871 215.918 141.082 216.395 141.504C216.879 141.918 217.121 142.449 217.121 143.098C217.121 143.488 217.027 143.914 216.84 144.375L215.609 147.445H216.957C217.941 147.445 218.434 147.793 218.434 148.488C218.434 148.965 218.258 149.336 217.906 149.602C217.562 149.867 217.078 150 216.453 150H214.098C213.598 150 213.176 149.859 212.832 149.578C212.496 149.289 212.328 148.938 212.328 148.523C212.328 148.242 212.418 147.883 212.598 147.445L213.676 144.797C213.809 144.461 213.875 144.207 213.875 144.035C213.875 143.59 213.578 143.367 212.984 143.367C212.188 143.367 211.516 144.047 210.969 145.406L209.656 148.629C209.242 149.652 208.629 150.164 207.816 150.164C207.496 150.164 207.223 150.062 206.996 149.859C206.77 149.656 206.656 149.41 206.656 149.121C206.656 148.902 206.715 148.645 206.832 148.348L206.961 148.031L212.059 135.457C212.504 134.379 213.113 133.84 213.887 133.84C214.207 133.84 214.48 133.949 214.707 134.168C214.941 134.379 215.059 134.637 215.059 134.941C215.059 135.191 214.957 135.562 214.754 136.055L212.527 141.539ZM240.559 141.141H240.969C241.961 141.141 242.457 141.488 242.457 142.184C242.457 142.668 242.285 143.043 241.941 143.309C241.605 143.574 241.129 143.707 240.512 143.707H239.504L237.336 148.969C236.07 152.039 233.879 153.574 230.762 153.574C229.051 153.574 227.672 153.059 226.625 152.027C225.586 151.004 225.066 149.648 225.066 147.961C225.066 146.82 225.352 145.75 225.922 144.75C226.492 143.742 227.262 142.957 228.23 142.395C228.902 142.012 229.875 141.703 231.148 141.469C230.539 140.711 230.234 139.922 230.234 139.102C230.234 138.312 230.441 137.555 230.855 136.828C231.27 136.094 231.824 135.504 232.52 135.059C233.543 134.402 234.918 134.074 236.645 134.074H239.375C240.367 134.074 240.863 134.418 240.863 135.105C240.863 135.59 240.691 135.965 240.348 136.23C240.012 136.496 239.535 136.629 238.918 136.629H236.48C235.473 136.629 234.691 136.809 234.137 137.168C233.309 137.707 232.895 138.434 232.895 139.348C232.895 139.895 233.117 140.332 233.562 140.66C234.008 140.98 234.613 141.141 235.379 141.141H237.605L238.227 139.664L238.355 139.359C238.715 138.523 239.266 138.105 240.008 138.105C240.344 138.105 240.625 138.215 240.852 138.434C241.086 138.652 241.203 138.918 241.203 139.23C241.203 139.473 241.102 139.84 240.898 140.332L240.559 141.141ZM236.551 143.707H233.41C232.035 143.707 230.98 143.855 230.246 144.152C229.52 144.449 228.922 144.941 228.453 145.629C227.992 146.309 227.762 147.039 227.762 147.82C227.762 148.727 228.066 149.469 228.676 150.047C229.285 150.633 230.07 150.926 231.031 150.926C231.797 150.926 232.504 150.695 233.152 150.234C233.809 149.781 234.289 149.18 234.594 148.43L236.551 143.707ZM261.641 136.805H260.48H260.164C259.297 136.805 258.863 136.43 258.863 135.68C258.863 135.203 259.039 134.805 259.391 134.484C259.75 134.164 260.188 134.004 260.703 134.004H261.02H264.453C266.75 134.004 268.512 134.551 269.738 135.645C270.965 136.738 271.578 138.312 271.578 140.367C271.578 143.5 270.535 146.371 268.449 148.98C267.27 150.449 265.934 151.52 264.441 152.191C262.957 152.863 261.176 153.199 259.098 153.199H258.277L258.137 153.527C257.59 154.746 257.16 155.602 256.848 156.094C256.535 156.586 256.129 157.062 255.629 157.523C254.324 158.719 252.828 159.316 251.141 159.316C249.75 159.316 248.609 158.902 247.719 158.074C246.82 157.254 246.371 156.207 246.371 154.934C246.371 154.152 246.562 153.418 246.945 152.73C247.328 152.051 247.848 151.52 248.504 151.137C249.355 150.645 250.508 150.398 251.961 150.398H256.121L261.641 136.805ZM259.414 150.398H259.883C262.305 150.398 264.332 149.324 265.965 147.176C266.754 146.145 267.375 145.027 267.828 143.824C268.289 142.621 268.52 141.508 268.52 140.484C268.52 139.344 268.199 138.445 267.559 137.789C266.918 137.133 266.047 136.805 264.945 136.805L259.414 150.398ZM254.984 153.199H251.879C250.348 153.199 249.582 153.742 249.582 154.828C249.582 155.273 249.75 155.648 250.086 155.953C250.422 156.258 250.832 156.41 251.316 156.41C252.035 156.41 252.719 156.125 253.367 155.555C254.016 154.992 254.555 154.207 254.984 153.199ZM274.742 143.602L274.344 144.586C273.984 145.461 273.516 145.898 272.938 145.898C272.586 145.898 272.293 145.793 272.059 145.582C271.824 145.371 271.707 145.109 271.707 144.797C271.707 144.617 271.793 144.312 271.965 143.883L273.289 140.613C273.609 139.824 274.062 139.43 274.648 139.43C275.227 139.43 275.582 139.703 275.715 140.25L275.809 140.613C275.855 140.801 275.926 140.918 276.02 140.965C276.113 141.012 276.344 141.035 276.711 141.035H279.453C280.477 141.035 280.988 141.395 280.988 142.113C280.988 143.105 280.34 143.602 279.043 143.602L278.914 143.719C277.672 144.906 277.051 145.824 277.051 146.473C277.051 147.121 277.41 147.445 278.129 147.445H279.605C280.598 147.445 281.094 147.789 281.094 148.477C281.094 148.961 280.918 149.336 280.566 149.602C280.223 149.867 279.738 150 279.113 150H276.816C276.035 150 275.395 149.73 274.895 149.191C274.402 148.652 274.156 147.953 274.156 147.094C274.156 146.547 274.289 146.016 274.555 145.5C274.82 144.984 275.289 144.352 275.961 143.602H274.742ZM288.301 150.48H289.66C290.652 150.48 291.148 150.828 291.148 151.523C291.148 152 290.973 152.371 290.621 152.637C290.277 152.902 289.793 153.035 289.168 153.035H287.27C287.043 153.707 286.633 154.598 286.039 155.707C285.008 157.66 283.508 158.637 281.539 158.637C280.344 158.637 279.34 158.262 278.527 157.512C277.715 156.762 277.309 155.832 277.309 154.723C277.309 153.949 277.531 153.227 277.977 152.555C278.414 151.891 278.992 151.391 279.711 151.055C280.539 150.672 281.762 150.48 283.379 150.48H285.289L285.629 149.637C285.051 149.879 284.52 150 284.035 150C283.199 150 282.52 149.789 281.996 149.367C281.48 148.938 281.223 148.383 281.223 147.703C281.223 147.289 281.391 146.668 281.727 145.84L283.004 142.688L283.133 142.359C283.508 141.477 284.09 141.035 284.879 141.035C285.223 141.035 285.508 141.145 285.734 141.363C285.969 141.582 286.086 141.859 286.086 142.195C286.086 142.422 285.984 142.789 285.781 143.297L284.633 146.098C284.453 146.551 284.359 146.844 284.352 146.977C284.328 147.359 284.57 147.551 285.078 147.551C285.438 147.551 285.805 147.445 286.18 147.234C286.555 147.023 286.793 146.785 286.895 146.52L288.465 142.688L288.582 142.359C288.949 141.477 289.531 141.035 290.328 141.035C290.672 141.035 290.957 141.148 291.184 141.375C291.418 141.594 291.535 141.867 291.535 142.195C291.535 142.422 291.477 142.684 291.359 142.98L291.219 143.297L288.301 150.48ZM284.469 153.035H282.828C281.031 153.035 280.133 153.598 280.133 154.723C280.133 155.121 280.258 155.441 280.508 155.684C280.75 155.926 281.078 156.047 281.492 156.047C282.062 156.047 282.566 155.824 283.004 155.379C283.449 154.934 283.938 154.152 284.469 153.035Z" fill="white"/>
</svg>
